<?xml version="1.0" encoding="UTF-8" standalone="no"?>
<!DOCTYPE svg PUBLIC "-//W3C//DTD SVG 1.1//EN"
 "http://www.w3.org/Graphics/SVG/1.1/DTD/svg11.dtd">
<!-- Generated by graphviz version 12.2.1 (20241206.2353)
 -->
<!-- Title: pastafarianism Pages: 1 -->
<svg width="340pt" height="141pt"
 viewBox="0.00 0.00 340.33 141.00" xmlns="http://www.w3.org/2000/svg" xmlns:xlink="http://www.w3.org/1999/xlink">
<g id="graph0" class="graph" transform="scale(1 1) rotate(0) translate(4 137)">
<title>pastafarianism</title>
<polygon fill="white" stroke="none" points="-4,4 -4,-137 336.33,-137 336.33,4 -4,4"/>
<!-- ParallelDemo -->
<g id="node1" class="node">
<title>ParallelDemo</title>
<polygon fill="gold" stroke="black" points="222.25,-133 98.15,-133 66.22,-72 190.33,-72 222.25,-133"/>
<text text-anchor="middle" x="144.24" y="-105.2" font-family="Times,serif" font-size="9.00">⚡ ParallelDemo</text>
<text text-anchor="middle" x="144.24" y="-93.2" font-family="Times,serif" font-size="9.00">SuccessOnAll</text>
</g>
<!-- TaskA (3 ticks) -->
<g id="node2" class="node">
<title>TaskA (3 ticks)</title>
<ellipse fill="gray" stroke="black" cx="41.24" cy="-18" rx="41.24" ry="18"/>
<text text-anchor="middle" x="41.24" y="-14.7" font-family="Times,serif" font-size="9.00">TaskA (3 ticks)</text>
</g>
<!-- ParallelDemo&#45;&gt;TaskA (3 ticks) -->
<g id="edge1" class="edge">
<title>ParallelDemo&#45;&gt;TaskA (3 ticks)</title>
<path fill="none" stroke="black" d="M107.05,-71.72C94.59,-61.74 80.92,-50.79 69.28,-41.46"/>
<polygon fill="black" stroke="black" points="71.62,-38.85 61.63,-35.33 67.24,-44.31 71.62,-38.85"/>
</g>
<!-- TaskB (10 ticks) -->
<g id="node3" class="node">
<title>TaskB (10 ticks)</title>
<ellipse fill="gray" stroke="black" cx="144.24" cy="-18" rx="43.86" ry="18"/>
<text text-anchor="middle" x="144.24" y="-14.7" font-family="Times,serif" font-size="9.00">TaskB (10 ticks)</text>
</g>
<!-- ParallelDemo&#45;&gt;TaskB (10 ticks) -->
<g id="edge2" class="edge">
<title>ParallelDemo&#45;&gt;TaskB (10 ticks)</title>
<path fill="none" stroke="black" d="M144.24,-71.72C144.24,-63.96 144.24,-55.62 144.24,-47.91"/>
<polygon fill="black" stroke="black" points="147.74,-48.01 144.24,-38.01 140.74,-48.01 147.74,-48.01"/>
</g>
<!-- Background (Never Stop) -->
<g id="node4" class="node">
<title>Background (Never Stop)</title>
<ellipse fill="gray" stroke="black" cx="269.24" cy="-18" rx="63.09" ry="18"/>
<text text-anchor="middle" x="269.24" y="-14.7" font-family="Times,serif" font-size="9.00">Background (Never Stop)</text>
</g>
<!-- ParallelDemo&#45;&gt;Background (Never Stop) -->
<g id="edge3" class="edge">
<title>ParallelDemo&#45;&gt;Background (Never Stop)</title>
<path fill="none" stroke="black" d="M189.36,-71.72C204.59,-61.67 221.31,-50.63 235.5,-41.26"/>
<polygon fill="black" stroke="black" points="237.19,-44.34 243.61,-35.91 233.34,-38.5 237.19,-44.34"/>
</g>
</g>
</svg>
