<?xml version="1.0" encoding="UTF-8" standalone="no"?>
<!DOCTYPE svg PUBLIC "-//W3C//DTD SVG 1.1//EN"
 "http://www.w3.org/Graphics/SVG/1.1/DTD/svg11.dtd">
<!-- Generated by graphviz version 12.2.1 (20241206.2353)
 -->
<!-- Title: pastafarianism Pages: 1 -->
<svg width="334pt" height="116pt"
 viewBox="0.00 0.00 334.33 116.00" xmlns="http://www.w3.org/2000/svg" xmlns:xlink="http://www.w3.org/1999/xlink">
<g id="graph0" class="graph" transform="scale(1 1) rotate(0) translate(4 112)">
<title>pastafarianism</title>
<polygon fill="white" stroke="none" points="-4,4 -4,-112 330.33,-112 330.33,4 -4,4"/>
<!-- SelectorDemo -->
<g id="node1" class="node">
<title>SelectorDemo</title>
<polygon fill="cyan" stroke="black" points="190.13,-82.54 190.13,-97.46 161.49,-108 120.98,-108 92.34,-97.46 92.34,-82.54 120.98,-72 161.49,-72 190.13,-82.54"/>
<text text-anchor="middle" x="141.24" y="-86.7" font-family="Times,serif" font-size="9.00">Ⓜ SelectorDemo</text>
</g>
<!-- TaskA (3 ticks) -->
<g id="node2" class="node">
<title>TaskA (3 ticks)</title>
<ellipse fill="gray" stroke="black" cx="41.24" cy="-18" rx="41.24" ry="18"/>
<text text-anchor="middle" x="41.24" y="-14.7" font-family="Times,serif" font-size="9.00">TaskA (3 ticks)</text>
</g>
<!-- SelectorDemo&#45;&gt;TaskA (3 ticks) -->
<g id="edge1" class="edge">
<title>SelectorDemo&#45;&gt;TaskA (3 ticks)</title>
<path fill="none" stroke="black" d="M118.04,-72.76C104.22,-63.09 86.52,-50.7 71.6,-40.25"/>
<polygon fill="black" stroke="black" points="73.7,-37.45 63.5,-34.58 69.69,-43.19 73.7,-37.45"/>
</g>
<!-- TaskB (5 ticks) -->
<g id="node3" class="node">
<title>TaskB (5 ticks)</title>
<ellipse fill="gray" stroke="black" cx="141.24" cy="-18" rx="41.24" ry="18"/>
<text text-anchor="middle" x="141.24" y="-14.7" font-family="Times,serif" font-size="9.00">TaskB (5 ticks)</text>
</g>
<!-- SelectorDemo&#45;&gt;TaskB (5 ticks) -->
<g id="edge2" class="edge">
<title>SelectorDemo&#45;&gt;TaskB (5 ticks)</title>
<path fill="none" stroke="black" d="M141.24,-71.7C141.24,-64.41 141.24,-55.73 141.24,-47.54"/>
<polygon fill="black" stroke="black" points="144.74,-47.62 141.24,-37.62 137.74,-47.62 144.74,-47.62"/>
</g>
<!-- Background (Never Stop) -->
<g id="node4" class="node">
<title>Background (Never Stop)</title>
<ellipse fill="gray" stroke="black" cx="263.24" cy="-18" rx="63.09" ry="18"/>
<text text-anchor="middle" x="263.24" y="-14.7" font-family="Times,serif" font-size="9.00">Background (Never Stop)</text>
</g>
<!-- SelectorDemo&#45;&gt;Background (Never Stop) -->
<g id="edge3" class="edge">
<title>SelectorDemo&#45;&gt;Background (Never Stop)</title>
<path fill="none" stroke="black" d="M167.71,-73.81C184.82,-63.99 207.33,-51.08 226.2,-40.25"/>
<polygon fill="black" stroke="black" points="227.73,-43.41 234.66,-35.4 224.24,-37.34 227.73,-43.41"/>
</g>
</g>
</svg>
