<?xml version="1.0" encoding="UTF-8" standalone="no"?>
<!DOCTYPE svg PUBLIC "-//W3C//DTD SVG 1.1//EN"
 "http://www.w3.org/Graphics/SVG/1.1/DTD/svg11.dtd">
<!-- Generated by graphviz version 12.2.1 (20241206.2353)
 -->
<!-- Title: pastafarianism Pages: 1 -->
<svg width="334pt" height="116pt"
 viewBox="0.00 0.00 334.33 116.00" xmlns="http://www.w3.org/2000/svg" xmlns:xlink="http://www.w3.org/1999/xlink">
<g id="graph0" class="graph" transform="scale(1 1) rotate(0) translate(4 112)">
<title>pastafarianism</title>
<polygon fill="white" stroke="none" points="-4,4 -4,-112 330.33,-112 330.33,4 -4,4"/>
<!-- SequenceDemo -->
<g id="node1" class="node">
<title>SequenceDemo</title>
<polygon fill="orange" stroke="black" points="182.61,-108 99.86,-108 99.86,-72 182.61,-72 182.61,-108"/>
<text text-anchor="middle" x="141.24" y="-86.7" font-family="Times,serif" font-size="9.00">Ⓜ SequenceDemo</text>
</g>
<!-- TaskA (3 ticks) -->
<g id="node2" class="node">
<title>TaskA (3 ticks)</title>
<ellipse fill="gray" stroke="black" cx="41.24" cy="-18" rx="41.24" ry="18"/>
<text text-anchor="middle" x="41.24" y="-14.7" font-family="Times,serif" font-size="9.00">TaskA (3 ticks)</text>
</g>
<!-- SequenceDemo&#45;&gt;TaskA (3 ticks) -->
<g id="edge1" class="edge">
<title>SequenceDemo&#45;&gt;TaskA (3 ticks)</title>
<path fill="none" stroke="black" d="M116.26,-71.52C102.82,-62.11 86.12,-50.42 71.9,-40.46"/>
<polygon fill="black" stroke="black" points="73.95,-37.63 63.75,-34.76 69.94,-43.36 73.95,-37.63"/>
</g>
<!-- TaskB (5 ticks) -->
<g id="node3" class="node">
<title>TaskB (5 ticks)</title>
<ellipse fill="gray" stroke="black" cx="141.24" cy="-18" rx="41.24" ry="18"/>
<text text-anchor="middle" x="141.24" y="-14.7" font-family="Times,serif" font-size="9.00">TaskB (5 ticks)</text>
</g>
<!-- SequenceDemo&#45;&gt;TaskB (5 ticks) -->
<g id="edge2" class="edge">
<title>SequenceDemo&#45;&gt;TaskB (5 ticks)</title>
<path fill="none" stroke="black" d="M141.24,-71.7C141.24,-64.41 141.24,-55.73 141.24,-47.54"/>
<polygon fill="black" stroke="black" points="144.74,-47.62 141.24,-37.62 137.74,-47.62 144.74,-47.62"/>
</g>
<!-- Background (Never Stop) -->
<g id="node4" class="node">
<title>Background (Never Stop)</title>
<ellipse fill="gray" stroke="black" cx="263.24" cy="-18" rx="63.09" ry="18"/>
<text text-anchor="middle" x="263.24" y="-14.7" font-family="Times,serif" font-size="9.00">Background (Never Stop)</text>
</g>
<!-- SequenceDemo&#45;&gt;Background (Never Stop) -->
<g id="edge3" class="edge">
<title>SequenceDemo&#45;&gt;Background (Never Stop)</title>
<path fill="none" stroke="black" d="M171.71,-71.52C188.23,-62.04 208.77,-50.25 226.21,-40.25"/>
<polygon fill="black" stroke="black" points="227.82,-43.36 234.75,-35.35 224.33,-37.29 227.82,-43.36"/>
</g>
</g>
</svg>
