<?xml version="1.0" encoding="UTF-8" standalone="no"?>
<!DOCTYPE svg PUBLIC "-//W3C//DTD SVG 1.1//EN"
 "http://www.w3.org/Graphics/SVG/1.1/DTD/svg11.dtd">
<!-- Generated by graphviz version 12.2.1 (20241206.2353)
 -->
<!-- Title: pastafarianism Pages: 1 -->
<svg width="138pt" height="116pt"
 viewBox="0.00 0.00 138.00 116.00" xmlns="http://www.w3.org/2000/svg" xmlns:xlink="http://www.w3.org/1999/xlink">
<g id="graph0" class="graph" transform="scale(1 1) rotate(0) translate(4 112)">
<title>pastafarianism</title>
<polygon fill="white" stroke="none" points="-4,4 -4,-112 134,-112 134,4 -4,4"/>
<!-- FooDemo -->
<g id="node1" class="node">
<title>FooDemo</title>
<polygon fill="orange" stroke="black" points="97.62,-108 34.37,-108 34.37,-72 97.62,-72 97.62,-108"/>
<text text-anchor="middle" x="66" y="-86.7" font-family="Times,serif" font-size="9.00">Ⓜ FooDemo</text>
</g>
<!-- Foo Task -->
<g id="node2" class="node">
<title>Foo Task</title>
<ellipse fill="gray" stroke="black" cx="29" cy="-18" rx="29" ry="18"/>
<text text-anchor="middle" x="29" y="-14.7" font-family="Times,serif" font-size="9.00">Foo Task</text>
</g>
<!-- FooDemo&#45;&gt;Foo Task -->
<g id="edge1" class="edge">
<title>FooDemo&#45;&gt;Foo Task</title>
<path fill="none" stroke="black" d="M56.85,-71.7C52.71,-63.87 47.73,-54.44 43.12,-45.73"/>
<polygon fill="black" stroke="black" points="46.26,-44.17 38.49,-36.96 40.07,-47.44 46.26,-44.17"/>
</g>
<!-- Done -->
<g id="node3" class="node">
<title>Done</title>
<ellipse fill="gray" stroke="black" cx="103" cy="-18" rx="27" ry="18"/>
<text text-anchor="middle" x="103" y="-14.7" font-family="Times,serif" font-size="9.00">Done</text>
</g>
<!-- FooDemo&#45;&gt;Done -->
<g id="edge2" class="edge">
<title>FooDemo&#45;&gt;Done</title>
<path fill="none" stroke="black" d="M75.14,-71.7C79.39,-63.67 84.52,-53.95 89.23,-45.05"/>
<polygon fill="black" stroke="black" points="92.18,-46.96 93.76,-36.48 85.99,-43.69 92.18,-46.96"/>
</g>
</g>
</svg>
