<?xml version="1.0" encoding="UTF-8" standalone="no"?>
<!DOCTYPE svg PUBLIC "-//W3C//DTD SVG 1.1//EN"
 "http://www.w3.org/Graphics/SVG/1.1/DTD/svg11.dtd">
<!-- Generated by graphviz version 12.2.1 (20241206.2353)
 -->
<!-- Title: pastafarianism Pages: 1 -->
<svg width="170pt" height="188pt"
 viewBox="0.00 0.00 169.79 188.00" xmlns="http://www.w3.org/2000/svg" xmlns:xlink="http://www.w3.org/1999/xlink">
<g id="graph0" class="graph" transform="scale(1 1) rotate(0) translate(4 184)">
<title>pastafarianism</title>
<polygon fill="white" stroke="none" points="-4,4 -4,-184 165.79,-184 165.79,4 -4,4"/>
<!-- CountDemo -->
<g id="node1" class="node">
<title>CountDemo</title>
<polygon fill="orange" stroke="black" points="130.16,-180 59.41,-180 59.41,-144 130.16,-144 130.16,-180"/>
<text text-anchor="middle" x="94.79" y="-158.7" font-family="Times,serif" font-size="9.00">Ⓜ CountDemo</text>
</g>
<!-- Count Ticks -->
<g id="node2" class="node">
<title>Count Ticks</title>
<ellipse fill="ghostwhite" stroke="black" cx="54.79" cy="-90" rx="34.68" ry="18"/>
<text text-anchor="middle" x="54.79" y="-86.7" font-family="Times,serif" font-size="9.00">Count Ticks</text>
</g>
<!-- CountDemo&#45;&gt;Count Ticks -->
<g id="edge1" class="edge">
<title>CountDemo&#45;&gt;Count Ticks</title>
<path fill="none" stroke="black" d="M84.9,-143.7C80.38,-135.78 74.92,-126.23 69.9,-117.44"/>
<polygon fill="black" stroke="black" points="73.04,-115.88 65.04,-108.94 66.96,-119.36 73.04,-115.88"/>
</g>
<!-- Done -->
<g id="node4" class="node">
<title>Done</title>
<ellipse fill="gray" stroke="black" cx="134.79" cy="-90" rx="27" ry="18"/>
<text text-anchor="middle" x="134.79" y="-86.7" font-family="Times,serif" font-size="9.00">Done</text>
</g>
<!-- CountDemo&#45;&gt;Done -->
<g id="edge3" class="edge">
<title>CountDemo&#45;&gt;Done</title>
<path fill="none" stroke="black" d="M104.68,-143.7C109.26,-135.67 114.82,-125.95 119.9,-117.05"/>
<polygon fill="black" stroke="black" points="122.89,-118.88 124.81,-108.46 116.81,-115.4 122.89,-118.88"/>
</g>
<!-- Succeed After 2 Ticks -->
<g id="node3" class="node">
<title>Succeed After 2 Ticks</title>
<ellipse fill="gray" stroke="black" cx="54.79" cy="-18" rx="54.79" ry="18"/>
<text text-anchor="middle" x="54.79" y="-14.7" font-family="Times,serif" font-size="9.00">Succeed After 2 Ticks</text>
</g>
<!-- Count Ticks&#45;&gt;Succeed After 2 Ticks -->
<g id="edge2" class="edge">
<title>Count Ticks&#45;&gt;Succeed After 2 Ticks</title>
<path fill="none" stroke="black" d="M54.79,-71.7C54.79,-64.41 54.79,-55.73 54.79,-47.54"/>
<polygon fill="black" stroke="black" points="58.29,-47.62 54.79,-37.62 51.29,-47.62 58.29,-47.62"/>
</g>
</g>
</svg>
