<?xml version="1.0" encoding="UTF-8" standalone="no"?>
<!DOCTYPE svg PUBLIC "-//W3C//DTD SVG 1.1//EN"
 "http://www.w3.org/Graphics/SVG/1.1/DTD/svg11.dtd">
<!-- Generated by graphviz version 12.2.1 (20241206.2353)
 -->
<!-- Title: pastafarianism Pages: 1 -->
<svg width="173pt" height="188pt"
 viewBox="0.00 0.00 172.79 188.00" xmlns="http://www.w3.org/2000/svg" xmlns:xlink="http://www.w3.org/1999/xlink">
<g id="graph0" class="graph" transform="scale(1 1) rotate(0) translate(4 184)">
<title>pastafarianism</title>
<polygon fill="white" stroke="none" points="-4,4 -4,-184 168.79,-184 168.79,4 -4,4"/>
<!-- EternalGuardDemo -->
<g id="node1" class="node">
<title>EternalGuardDemo</title>
<polygon fill="orange" stroke="black" points="143.91,-180 47.66,-180 47.66,-144 143.91,-144 143.91,-180"/>
<text text-anchor="middle" x="95.79" y="-158.7" font-family="Times,serif" font-size="9.00">Ⓜ EternalGuardDemo</text>
</g>
<!-- Eternal Guard -->
<g id="node2" class="node">
<title>Eternal Guard</title>
<ellipse fill="ghostwhite" stroke="black" cx="54.79" cy="-90" rx="38.18" ry="18"/>
<text text-anchor="middle" x="54.79" y="-86.7" font-family="Times,serif" font-size="9.00">Eternal Guard</text>
</g>
<!-- EternalGuardDemo&#45;&gt;Eternal Guard -->
<g id="edge1" class="edge">
<title>EternalGuardDemo&#45;&gt;Eternal Guard</title>
<path fill="none" stroke="black" d="M85.65,-143.7C81.02,-135.78 75.42,-126.23 70.27,-117.44"/>
<polygon fill="black" stroke="black" points="73.36,-115.79 65.29,-108.93 67.32,-119.33 73.36,-115.79"/>
</g>
<!-- Done -->
<g id="node4" class="node">
<title>Done</title>
<ellipse fill="gray" stroke="black" cx="137.79" cy="-90" rx="27" ry="18"/>
<text text-anchor="middle" x="137.79" y="-86.7" font-family="Times,serif" font-size="9.00">Done</text>
</g>
<!-- EternalGuardDemo&#45;&gt;Done -->
<g id="edge3" class="edge">
<title>EternalGuardDemo&#45;&gt;Done</title>
<path fill="none" stroke="black" d="M106.17,-143.7C111.04,-135.58 116.95,-125.74 122.33,-116.76"/>
<polygon fill="black" stroke="black" points="125.18,-118.82 127.32,-108.44 119.18,-115.22 125.18,-118.82"/>
</g>
<!-- Succeed After 3 Ticks -->
<g id="node3" class="node">
<title>Succeed After 3 Ticks</title>
<ellipse fill="gray" stroke="black" cx="54.79" cy="-18" rx="54.79" ry="18"/>
<text text-anchor="middle" x="54.79" y="-14.7" font-family="Times,serif" font-size="9.00">Succeed After 3 Ticks</text>
</g>
<!-- Eternal Guard&#45;&gt;Succeed After 3 Ticks -->
<g id="edge2" class="edge">
<title>Eternal Guard&#45;&gt;Succeed After 3 Ticks</title>
<path fill="none" stroke="black" d="M54.79,-71.7C54.79,-64.41 54.79,-55.73 54.79,-47.54"/>
<polygon fill="black" stroke="black" points="58.29,-47.62 54.79,-37.62 51.29,-47.62 58.29,-47.62"/>
</g>
</g>
</svg>
