<?xml version="1.0" encoding="UTF-8" standalone="no"?>
<!DOCTYPE svg PUBLIC "-//W3C//DTD SVG 1.1//EN"
 "http://www.w3.org/Graphics/SVG/1.1/DTD/svg11.dtd">
<!-- Generated by graphviz version 12.2.1 (20241206.2353)
 -->
<!-- Title: pastafarianism Pages: 1 -->
<svg width="396pt" height="285pt"
 viewBox="0.00 0.00 396.20 285.00" xmlns="http://www.w3.org/2000/svg" xmlns:xlink="http://www.w3.org/1999/xlink">
<g id="graph0" class="graph" transform="scale(1 1) rotate(0) translate(4 281)">
<title>pastafarianism</title>
<polygon fill="white" stroke="none" points="-4,4 -4,-281 392.2,-281 392.2,4 -4,4"/>
<!-- EternalGuardDemo -->
<g id="node1" class="node">
<title>EternalGuardDemo</title>
<polygon fill="gold" stroke="black" points="270,-277 111.26,-277 70.43,-216 229.17,-216 270,-277"/>
<text text-anchor="middle" x="170.21" y="-249.2" font-family="Times,serif" font-size="9.00">⚡ EternalGuardDemo</text>
<text text-anchor="middle" x="170.21" y="-237.2" font-family="Times,serif" font-size="9.00">SuccessOnAll</text>
</g>
<!-- Eternal Guard (True) -->
<g id="node2" class="node">
<title>Eternal Guard (True)</title>
<ellipse fill="ghostwhite" stroke="black" cx="96.21" cy="-162" rx="52.6" ry="18"/>
<text text-anchor="middle" x="96.21" y="-158.7" font-family="Times,serif" font-size="9.00">Eternal Guard (True)</text>
</g>
<!-- EternalGuardDemo&#45;&gt;Eternal Guard (True) -->
<g id="edge1" class="edge">
<title>EternalGuardDemo&#45;&gt;Eternal Guard (True)</title>
<path fill="none" stroke="black" d="M143.5,-215.72C135.3,-206.58 126.37,-196.62 118.5,-187.85"/>
<polygon fill="black" stroke="black" points="121.35,-185.78 112.07,-180.67 116.14,-190.45 121.35,-185.78"/>
</g>
<!-- Inverter (Keep Parallel Running) -->
<g id="node4" class="node">
<title>Inverter (Keep Parallel Running)</title>
<ellipse fill="ghostwhite" stroke="black" cx="258.21" cy="-162" rx="77.08" ry="18"/>
<text text-anchor="middle" x="258.21" y="-158.7" font-family="Times,serif" font-size="9.00">Inverter (Keep Parallel Running)</text>
</g>
<!-- EternalGuardDemo&#45;&gt;Inverter (Keep Parallel Running) -->
<g id="edge3" class="edge">
<title>EternalGuardDemo&#45;&gt;Inverter (Keep Parallel Running)</title>
<path fill="none" stroke="black" d="M201.98,-215.72C211.86,-206.46 222.63,-196.36 232.07,-187.51"/>
<polygon fill="black" stroke="black" points="234.31,-190.21 239.21,-180.82 229.52,-185.1 234.31,-190.21"/>
</g>
<!-- Succeed After 3 Ticks (True) -->
<g id="node3" class="node">
<title>Succeed After 3 Ticks (True)</title>
<ellipse fill="gray" stroke="black" cx="69.21" cy="-90" rx="69.21" ry="18"/>
<text text-anchor="middle" x="69.21" y="-86.7" font-family="Times,serif" font-size="9.00">Succeed After 3 Ticks (True)</text>
</g>
<!-- Eternal Guard (True)&#45;&gt;Succeed After 3 Ticks (True) -->
<g id="edge2" class="edge">
<title>Eternal Guard (True)&#45;&gt;Succeed After 3 Ticks (True)</title>
<path fill="none" stroke="black" d="M89.54,-143.7C86.63,-136.15 83.14,-127.12 79.89,-118.68"/>
<polygon fill="black" stroke="black" points="83.22,-117.59 76.36,-109.52 76.69,-120.11 83.22,-117.59"/>
</g>
<!-- Eternal Guard (Condition False, Child Never Runs) -->
<g id="node5" class="node">
<title>Eternal Guard (Condition False, Child Never Runs)</title>
<ellipse fill="ghostwhite" stroke="black" cx="272.21" cy="-90" rx="115.99" ry="18"/>
<text text-anchor="middle" x="272.21" y="-86.7" font-family="Times,serif" font-size="9.00">Eternal Guard (Condition False, Child Never Runs)</text>
</g>
<!-- Inverter (Keep Parallel Running)&#45;&gt;Eternal Guard (Condition False, Child Never Runs) -->
<g id="edge4" class="edge">
<title>Inverter (Keep Parallel Running)&#45;&gt;Eternal Guard (Condition False, Child Never Runs)</title>
<path fill="none" stroke="black" d="M261.67,-143.7C263.15,-136.32 264.91,-127.52 266.56,-119.25"/>
<polygon fill="black" stroke="black" points="269.97,-120.08 268.5,-109.59 263.1,-118.71 269.97,-120.08"/>
</g>
<!-- Succeed After 3 Ticks (False) -->
<g id="node6" class="node">
<title>Succeed After 3 Ticks (False)</title>
<ellipse fill="gray" stroke="black" cx="272.21" cy="-18" rx="70.52" ry="18"/>
<text text-anchor="middle" x="272.21" y="-14.7" font-family="Times,serif" font-size="9.00">Succeed After 3 Ticks (False)</text>
</g>
<!-- Eternal Guard (Condition False, Child Never Runs)&#45;&gt;Succeed After 3 Ticks (False) -->
<g id="edge5" class="edge">
<title>Eternal Guard (Condition False, Child Never Runs)&#45;&gt;Succeed After 3 Ticks (False)</title>
<path fill="none" stroke="black" d="M272.21,-71.7C272.21,-64.41 272.21,-55.73 272.21,-47.54"/>
<polygon fill="black" stroke="black" points="275.71,-47.62 272.21,-37.62 268.71,-47.62 275.71,-47.62"/>
</g>
</g>
</svg>
