<?xml version="1.0" encoding="UTF-8" standalone="no"?>
<!DOCTYPE svg PUBLIC "-//W3C//DTD SVG 1.1//EN"
 "http://www.w3.org/Graphics/SVG/1.1/DTD/svg11.dtd">
<!-- Generated by graphviz version 12.2.1 (20241206.2353)
 -->
<!-- Title: pastafarianism Pages: 1 -->
<svg width="162pt" height="188pt"
 viewBox="0.00 0.00 161.61 188.00" xmlns="http://www.w3.org/2000/svg" xmlns:xlink="http://www.w3.org/1999/xlink">
<g id="graph0" class="graph" transform="scale(1 1) rotate(0) translate(4 184)">
<title>pastafarianism</title>
<polygon fill="white" stroke="none" points="-4,4 -4,-184 157.61,-184 157.61,4 -4,4"/>
<!-- InverterDemo -->
<g id="node1" class="node">
<title>InverterDemo</title>
<polygon fill="orange" stroke="black" points="123.98,-180 47.23,-180 47.23,-144 123.98,-144 123.98,-180"/>
<text text-anchor="middle" x="85.61" y="-158.7" font-family="Times,serif" font-size="9.00">Ⓜ InverterDemo</text>
</g>
<!-- Invert Result -->
<g id="node2" class="node">
<title>Invert Result</title>
<ellipse fill="ghostwhite" stroke="black" cx="45.61" cy="-90" rx="35.99" ry="18"/>
<text text-anchor="middle" x="45.61" y="-86.7" font-family="Times,serif" font-size="9.00">Invert Result</text>
</g>
<!-- InverterDemo&#45;&gt;Invert Result -->
<g id="edge1" class="edge">
<title>InverterDemo&#45;&gt;Invert Result</title>
<path fill="none" stroke="black" d="M75.72,-143.7C71.2,-135.78 65.74,-126.23 60.72,-117.44"/>
<polygon fill="black" stroke="black" points="63.86,-115.88 55.86,-108.94 57.78,-119.36 63.86,-115.88"/>
</g>
<!-- Done -->
<g id="node4" class="node">
<title>Done</title>
<ellipse fill="gray" stroke="black" cx="126.61" cy="-90" rx="27" ry="18"/>
<text text-anchor="middle" x="126.61" y="-86.7" font-family="Times,serif" font-size="9.00">Done</text>
</g>
<!-- InverterDemo&#45;&gt;Done -->
<g id="edge3" class="edge">
<title>InverterDemo&#45;&gt;Done</title>
<path fill="none" stroke="black" d="M95.74,-143.7C100.45,-135.67 106.14,-125.95 111.35,-117.05"/>
<polygon fill="black" stroke="black" points="114.35,-118.85 116.39,-108.45 108.31,-115.31 114.35,-118.85"/>
</g>
<!-- Fail After 2 Ticks -->
<g id="node3" class="node">
<title>Fail After 2 Ticks</title>
<ellipse fill="gray" stroke="black" cx="45.61" cy="-18" rx="45.61" ry="18"/>
<text text-anchor="middle" x="45.61" y="-14.7" font-family="Times,serif" font-size="9.00">Fail After 2 Ticks</text>
</g>
<!-- Invert Result&#45;&gt;Fail After 2 Ticks -->
<g id="edge2" class="edge">
<title>Invert Result&#45;&gt;Fail After 2 Ticks</title>
<path fill="none" stroke="black" d="M45.61,-71.7C45.61,-64.41 45.61,-55.73 45.61,-47.54"/>
<polygon fill="black" stroke="black" points="49.11,-47.62 45.61,-37.62 42.11,-47.62 49.11,-47.62"/>
</g>
</g>
</svg>
