<?xml version="1.0" encoding="UTF-8" standalone="no"?>
<!DOCTYPE svg PUBLIC "-//W3C//DTD SVG 1.1//EN"
 "http://www.w3.org/Graphics/SVG/1.1/DTD/svg11.dtd">
<!-- Generated by graphviz version 12.2.1 (20241206.2353)
 -->
<!-- Title: pastafarianism Pages: 1 -->
<svg width="175pt" height="188pt"
 viewBox="0.00 0.00 175.35 188.00" xmlns="http://www.w3.org/2000/svg" xmlns:xlink="http://www.w3.org/1999/xlink">
<g id="graph0" class="graph" transform="scale(1 1) rotate(0) translate(4 184)">
<title>pastafarianism</title>
<polygon fill="white" stroke="none" points="-4,4 -4,-184 171.35,-184 171.35,4 -4,4"/>
<!-- RepeatDemo -->
<g id="node1" class="node">
<title>RepeatDemo</title>
<polygon fill="orange" stroke="black" points="133.85,-180 60.85,-180 60.85,-144 133.85,-144 133.85,-180"/>
<text text-anchor="middle" x="97.35" y="-158.7" font-family="Times,serif" font-size="9.00">Ⓜ RepeatDemo</text>
</g>
<!-- Repeat 3 Times -->
<g id="node2" class="node">
<title>Repeat 3 Times</title>
<ellipse fill="ghostwhite" stroke="black" cx="54.35" cy="-90" rx="41.24" ry="18"/>
<text text-anchor="middle" x="54.35" y="-86.7" font-family="Times,serif" font-size="9.00">Repeat 3 Times</text>
</g>
<!-- RepeatDemo&#45;&gt;Repeat 3 Times -->
<g id="edge1" class="edge">
<title>RepeatDemo&#45;&gt;Repeat 3 Times</title>
<path fill="none" stroke="black" d="M86.72,-143.7C81.81,-135.7 75.86,-126.02 70.42,-117.15"/>
<polygon fill="black" stroke="black" points="73.57,-115.6 65.35,-108.91 67.61,-119.26 73.57,-115.6"/>
</g>
<!-- Done -->
<g id="node4" class="node">
<title>Done</title>
<ellipse fill="gray" stroke="black" cx="140.35" cy="-90" rx="27" ry="18"/>
<text text-anchor="middle" x="140.35" y="-86.7" font-family="Times,serif" font-size="9.00">Done</text>
</g>
<!-- RepeatDemo&#45;&gt;Done -->
<g id="edge3" class="edge">
<title>RepeatDemo&#45;&gt;Done</title>
<path fill="none" stroke="black" d="M107.98,-143.7C112.97,-135.58 119.01,-125.74 124.52,-116.76"/>
<polygon fill="black" stroke="black" points="127.39,-118.79 129.64,-108.43 121.42,-115.12 127.39,-118.79"/>
</g>
<!-- Success After 2 Ticks -->
<g id="node3" class="node">
<title>Success After 2 Ticks</title>
<ellipse fill="gray" stroke="black" cx="54.35" cy="-18" rx="54.35" ry="18"/>
<text text-anchor="middle" x="54.35" y="-14.7" font-family="Times,serif" font-size="9.00">Success After 2 Ticks</text>
</g>
<!-- Repeat 3 Times&#45;&gt;Success After 2 Ticks -->
<g id="edge2" class="edge">
<title>Repeat 3 Times&#45;&gt;Success After 2 Ticks</title>
<path fill="none" stroke="black" d="M54.35,-71.7C54.35,-64.41 54.35,-55.73 54.35,-47.54"/>
<polygon fill="black" stroke="black" points="57.85,-47.62 54.35,-37.62 50.85,-47.62 57.85,-47.62"/>
</g>
</g>
</svg>
