<?xml version="1.0" encoding="UTF-8" standalone="no"?>
<!DOCTYPE svg PUBLIC "-//W3C//DTD SVG 1.1//EN"
 "http://www.w3.org/Graphics/SVG/1.1/DTD/svg11.dtd">
<!-- Generated by graphviz version 12.2.1 (20241206.2353)
 -->
<!-- Title: pastafarianism Pages: 1 -->
<svg width="178pt" height="188pt"
 viewBox="0.00 0.00 178.35 188.00" xmlns="http://www.w3.org/2000/svg" xmlns:xlink="http://www.w3.org/1999/xlink">
<g id="graph0" class="graph" transform="scale(1 1) rotate(0) translate(4 184)">
<title>pastafarianism</title>
<polygon fill="white" stroke="none" points="-4,4 -4,-184 174.35,-184 174.35,4 -4,4"/>
<!-- RetryDemo -->
<g id="node1" class="node">
<title>RetryDemo</title>
<polygon fill="orange" stroke="black" points="119.86,-180 51.36,-180 51.36,-144 119.86,-144 119.86,-180"/>
<text text-anchor="middle" x="85.61" y="-158.7" font-family="Times,serif" font-size="9.00">Ⓜ RetryDemo</text>
</g>
<!-- Retry 3 Times -->
<g id="node2" class="node">
<title>Retry 3 Times</title>
<ellipse fill="ghostwhite" stroke="black" cx="38.61" cy="-90" rx="38.61" ry="18"/>
<text text-anchor="middle" x="38.61" y="-86.7" font-family="Times,serif" font-size="9.00">Retry 3 Times</text>
</g>
<!-- RetryDemo&#45;&gt;Retry 3 Times -->
<g id="edge1" class="edge">
<title>RetryDemo&#45;&gt;Retry 3 Times</title>
<path fill="none" stroke="black" d="M74,-143.7C68.62,-135.7 62.13,-126.02 56.17,-117.15"/>
<polygon fill="black" stroke="black" points="59.1,-115.23 50.62,-108.88 53.29,-119.13 59.1,-115.23"/>
</g>
<!-- Final Success -->
<g id="node4" class="node">
<title>Final Success</title>
<ellipse fill="gray" stroke="black" cx="132.61" cy="-90" rx="37.74" ry="18"/>
<text text-anchor="middle" x="132.61" y="-86.7" font-family="Times,serif" font-size="9.00">Final Success</text>
</g>
<!-- RetryDemo&#45;&gt;Final Success -->
<g id="edge3" class="edge">
<title>RetryDemo&#45;&gt;Final Success</title>
<path fill="none" stroke="black" d="M97.23,-143.7C102.6,-135.7 109.1,-126.02 115.05,-117.15"/>
<polygon fill="black" stroke="black" points="117.94,-119.13 120.61,-108.88 112.13,-115.23 117.94,-119.13"/>
</g>
<!-- Fail 2 Times -->
<g id="node3" class="node">
<title>Fail 2 Times</title>
<ellipse fill="gray" stroke="black" cx="38.61" cy="-18" rx="35.12" ry="18"/>
<text text-anchor="middle" x="38.61" y="-14.7" font-family="Times,serif" font-size="9.00">Fail 2 Times</text>
</g>
<!-- Retry 3 Times&#45;&gt;Fail 2 Times -->
<g id="edge2" class="edge">
<title>Retry 3 Times&#45;&gt;Fail 2 Times</title>
<path fill="none" stroke="black" d="M38.61,-71.7C38.61,-64.41 38.61,-55.73 38.61,-47.54"/>
<polygon fill="black" stroke="black" points="42.11,-47.62 38.61,-37.62 35.11,-47.62 42.11,-47.62"/>
</g>
</g>
</svg>
