<?xml version="1.0" encoding="UTF-8" standalone="no"?>
<!DOCTYPE svg PUBLIC "-//W3C//DTD SVG 1.1//EN"
 "http://www.w3.org/Graphics/SVG/1.1/DTD/svg11.dtd">
<!-- Generated by graphviz version 12.2.1 (20241206.2353)
 -->
<!-- Title: pastafarianism Pages: 1 -->
<svg width="176pt" height="188pt"
 viewBox="0.00 0.00 176.23 188.00" xmlns="http://www.w3.org/2000/svg" xmlns:xlink="http://www.w3.org/1999/xlink">
<g id="graph0" class="graph" transform="scale(1 1) rotate(0) translate(4 184)">
<title>pastafarianism</title>
<polygon fill="white" stroke="none" points="-4,4 -4,-184 172.23,-184 172.23,4 -4,4"/>
<!-- RunningIsFailureDemo -->
<g id="node1" class="node">
<title>RunningIsFailureDemo</title>
<polygon fill="orange" stroke="black" points="149.86,-180 38.61,-180 38.61,-144 149.86,-144 149.86,-180"/>
<text text-anchor="middle" x="94.23" y="-158.7" font-family="Times,serif" font-size="9.00">Ⓜ RunningIsFailureDemo</text>
</g>
<!-- Running to Failure -->
<g id="node2" class="node">
<title>Running to Failure</title>
<ellipse fill="ghostwhite" stroke="black" cx="48.23" cy="-90" rx="48.23" ry="18"/>
<text text-anchor="middle" x="48.23" y="-86.7" font-family="Times,serif" font-size="9.00">Running to Failure</text>
</g>
<!-- RunningIsFailureDemo&#45;&gt;Running to Failure -->
<g id="edge1" class="edge">
<title>RunningIsFailureDemo&#45;&gt;Running to Failure</title>
<path fill="none" stroke="black" d="M82.86,-143.7C77.6,-135.7 71.24,-126.02 65.42,-117.15"/>
<polygon fill="black" stroke="black" points="68.4,-115.32 59.99,-108.89 62.55,-119.17 68.4,-115.32"/>
</g>
<!-- Done -->
<g id="node4" class="node">
<title>Done</title>
<ellipse fill="gray" stroke="black" cx="141.23" cy="-90" rx="27" ry="18"/>
<text text-anchor="middle" x="141.23" y="-86.7" font-family="Times,serif" font-size="9.00">Done</text>
</g>
<!-- RunningIsFailureDemo&#45;&gt;Done -->
<g id="edge3" class="edge">
<title>RunningIsFailureDemo&#45;&gt;Done</title>
<path fill="none" stroke="black" d="M105.85,-143.7C111.44,-135.37 118.25,-125.23 124.39,-116.08"/>
<polygon fill="black" stroke="black" points="127.2,-118.18 129.86,-107.93 121.38,-114.28 127.2,-118.18"/>
</g>
<!-- Always Running -->
<g id="node3" class="node">
<title>Always Running</title>
<ellipse fill="gray" stroke="black" cx="48.23" cy="-18" rx="44.73" ry="18"/>
<text text-anchor="middle" x="48.23" y="-14.7" font-family="Times,serif" font-size="9.00">Always Running</text>
</g>
<!-- Running to Failure&#45;&gt;Always Running -->
<g id="edge2" class="edge">
<title>Running to Failure&#45;&gt;Always Running</title>
<path fill="none" stroke="black" d="M48.23,-71.7C48.23,-64.41 48.23,-55.73 48.23,-47.54"/>
<polygon fill="black" stroke="black" points="51.73,-47.62 48.23,-37.62 44.73,-47.62 51.73,-47.62"/>
</g>
</g>
</svg>
