<?xml version="1.0" encoding="UTF-8" standalone="no"?>
<!DOCTYPE svg PUBLIC "-//W3C//DTD SVG 1.1//EN"
 "http://www.w3.org/Graphics/SVG/1.1/DTD/svg11.dtd">
<!-- Generated by graphviz version 12.2.1 (20241206.2353)
 -->
<!-- Title: pastafarianism Pages: 1 -->
<svg width="180pt" height="188pt"
 viewBox="0.00 0.00 180.42 188.00" xmlns="http://www.w3.org/2000/svg" xmlns:xlink="http://www.w3.org/1999/xlink">
<g id="graph0" class="graph" transform="scale(1 1) rotate(0) translate(4 184)">
<title>pastafarianism</title>
<polygon fill="white" stroke="none" points="-4,4 -4,-184 176.42,-184 176.42,4 -4,4"/>
<!-- RunningIsSuccessDemo -->
<g id="node1" class="node">
<title>RunningIsSuccessDemo</title>
<polygon fill="orange" stroke="black" points="154.92,-180 39.92,-180 39.92,-144 154.92,-144 154.92,-180"/>
<text text-anchor="middle" x="97.42" y="-158.7" font-family="Times,serif" font-size="9.00">Ⓜ RunningIsSuccessDemo</text>
</g>
<!-- Running to Success -->
<g id="node2" class="node">
<title>Running to Success</title>
<ellipse fill="ghostwhite" stroke="black" cx="50.42" cy="-90" rx="50.42" ry="18"/>
<text text-anchor="middle" x="50.42" y="-86.7" font-family="Times,serif" font-size="9.00">Running to Success</text>
</g>
<!-- RunningIsSuccessDemo&#45;&gt;Running to Success -->
<g id="edge1" class="edge">
<title>RunningIsSuccessDemo&#45;&gt;Running to Success</title>
<path fill="none" stroke="black" d="M85.8,-143.7C80.43,-135.7 73.93,-126.02 67.98,-117.15"/>
<polygon fill="black" stroke="black" points="70.9,-115.23 62.42,-108.88 65.09,-119.13 70.9,-115.23"/>
</g>
<!-- Done -->
<g id="node4" class="node">
<title>Done</title>
<ellipse fill="gray" stroke="black" cx="145.42" cy="-90" rx="27" ry="18"/>
<text text-anchor="middle" x="145.42" y="-86.7" font-family="Times,serif" font-size="9.00">Done</text>
</g>
<!-- RunningIsSuccessDemo&#45;&gt;Done -->
<g id="edge3" class="edge">
<title>RunningIsSuccessDemo&#45;&gt;Done</title>
<path fill="none" stroke="black" d="M109.28,-143.7C114.99,-135.37 121.94,-125.23 128.22,-116.08"/>
<polygon fill="black" stroke="black" points="131.05,-118.15 133.81,-107.92 125.27,-114.19 131.05,-118.15"/>
</g>
<!-- Always Running -->
<g id="node3" class="node">
<title>Always Running</title>
<ellipse fill="gray" stroke="black" cx="50.42" cy="-18" rx="44.73" ry="18"/>
<text text-anchor="middle" x="50.42" y="-14.7" font-family="Times,serif" font-size="9.00">Always Running</text>
</g>
<!-- Running to Success&#45;&gt;Always Running -->
<g id="edge2" class="edge">
<title>Running to Success&#45;&gt;Always Running</title>
<path fill="none" stroke="black" d="M50.42,-71.7C50.42,-64.41 50.42,-55.73 50.42,-47.54"/>
<polygon fill="black" stroke="black" points="53.92,-47.62 50.42,-37.62 46.92,-47.62 53.92,-47.62"/>
</g>
</g>
</svg>
