<?xml version="1.0" encoding="UTF-8" standalone="no"?>
<!DOCTYPE svg PUBLIC "-//W3C//DTD SVG 1.1//EN"
 "http://www.w3.org/Graphics/SVG/1.1/DTD/svg11.dtd">
<!-- Generated by graphviz version 12.2.1 (20241206.2353)
 -->
<!-- Title: pastafarianism Pages: 1 -->
<svg width="180pt" height="188pt"
 viewBox="0.00 0.00 180.04 188.00" xmlns="http://www.w3.org/2000/svg" xmlns:xlink="http://www.w3.org/1999/xlink">
<g id="graph0" class="graph" transform="scale(1 1) rotate(0) translate(4 184)">
<title>pastafarianism</title>
<polygon fill="white" stroke="none" points="-4,4 -4,-184 176.04,-184 176.04,4 -4,4"/>
<!-- SuccessIsFailureDemo -->
<g id="node1" class="node">
<title>SuccessIsFailureDemo</title>
<polygon fill="orange" stroke="black" points="153.54,-180 44.54,-180 44.54,-144 153.54,-144 153.54,-180"/>
<text text-anchor="middle" x="99.04" y="-158.7" font-family="Times,serif" font-size="9.00">Ⓜ SuccessIsFailureDemo</text>
</g>
<!-- Success to Failure -->
<g id="node2" class="node">
<title>Success to Failure</title>
<ellipse fill="ghostwhite" stroke="black" cx="53.04" cy="-90" rx="46.92" ry="18"/>
<text text-anchor="middle" x="53.04" y="-86.7" font-family="Times,serif" font-size="9.00">Success to Failure</text>
</g>
<!-- SuccessIsFailureDemo&#45;&gt;Success to Failure -->
<g id="edge1" class="edge">
<title>SuccessIsFailureDemo&#45;&gt;Success to Failure</title>
<path fill="none" stroke="black" d="M87.67,-143.7C82.41,-135.7 76.05,-126.02 70.23,-117.15"/>
<polygon fill="black" stroke="black" points="73.21,-115.32 64.79,-108.89 67.36,-119.17 73.21,-115.32"/>
</g>
<!-- Done -->
<g id="node4" class="node">
<title>Done</title>
<ellipse fill="gray" stroke="black" cx="145.04" cy="-90" rx="27" ry="18"/>
<text text-anchor="middle" x="145.04" y="-86.7" font-family="Times,serif" font-size="9.00">Done</text>
</g>
<!-- SuccessIsFailureDemo&#45;&gt;Done -->
<g id="edge3" class="edge">
<title>SuccessIsFailureDemo&#45;&gt;Done</title>
<path fill="none" stroke="black" d="M110.41,-143.7C115.88,-135.37 122.54,-125.23 128.56,-116.08"/>
<polygon fill="black" stroke="black" points="131.34,-118.22 133.91,-107.94 125.49,-114.37 131.34,-118.22"/>
</g>
<!-- Succeed Immediately -->
<g id="node3" class="node">
<title>Succeed Immediately</title>
<ellipse fill="gray" stroke="black" cx="53.04" cy="-18" rx="53.04" ry="18"/>
<text text-anchor="middle" x="53.04" y="-14.7" font-family="Times,serif" font-size="9.00">Succeed Immediately</text>
</g>
<!-- Success to Failure&#45;&gt;Succeed Immediately -->
<g id="edge2" class="edge">
<title>Success to Failure&#45;&gt;Succeed Immediately</title>
<path fill="none" stroke="black" d="M53.04,-71.7C53.04,-64.41 53.04,-55.73 53.04,-47.54"/>
<polygon fill="black" stroke="black" points="56.54,-47.62 53.04,-37.62 49.54,-47.62 56.54,-47.62"/>
</g>
</g>
</svg>
