<?xml version="1.0" encoding="UTF-8" standalone="no"?>
<!DOCTYPE svg PUBLIC "-//W3C//DTD SVG 1.1//EN"
 "http://www.w3.org/Graphics/SVG/1.1/DTD/svg11.dtd">
<!-- Generated by graphviz version 12.2.1 (20241206.2353)
 -->
<!-- Title: pastafarianism Pages: 1 -->
<svg width="183pt" height="188pt"
 viewBox="0.00 0.00 183.04 188.00" xmlns="http://www.w3.org/2000/svg" xmlns:xlink="http://www.w3.org/1999/xlink">
<g id="graph0" class="graph" transform="scale(1 1) rotate(0) translate(4 184)">
<title>pastafarianism</title>
<polygon fill="white" stroke="none" points="-4,4 -4,-184 179.04,-184 179.04,4 -4,4"/>
<!-- SuccessIsRunningDemo -->
<g id="node1" class="node">
<title>SuccessIsRunningDemo</title>
<polygon fill="orange" stroke="black" points="157.54,-180 42.54,-180 42.54,-144 157.54,-144 157.54,-180"/>
<text text-anchor="middle" x="100.04" y="-158.7" font-family="Times,serif" font-size="9.00">Ⓜ SuccessIsRunningDemo</text>
</g>
<!-- Success to Running -->
<g id="node2" class="node">
<title>Success to Running</title>
<ellipse fill="ghostwhite" stroke="black" cx="53.04" cy="-90" rx="50.42" ry="18"/>
<text text-anchor="middle" x="53.04" y="-86.7" font-family="Times,serif" font-size="9.00">Success to Running</text>
</g>
<!-- SuccessIsRunningDemo&#45;&gt;Success to Running -->
<g id="edge1" class="edge">
<title>SuccessIsRunningDemo&#45;&gt;Success to Running</title>
<path fill="none" stroke="black" d="M88.42,-143.7C83.05,-135.7 76.55,-126.02 70.6,-117.15"/>
<polygon fill="black" stroke="black" points="73.52,-115.23 65.04,-108.88 67.71,-119.13 73.52,-115.23"/>
</g>
<!-- Done -->
<g id="node4" class="node">
<title>Done</title>
<ellipse fill="gray" stroke="black" cx="148.04" cy="-90" rx="27" ry="18"/>
<text text-anchor="middle" x="148.04" y="-86.7" font-family="Times,serif" font-size="9.00">Done</text>
</g>
<!-- SuccessIsRunningDemo&#45;&gt;Done -->
<g id="edge3" class="edge">
<title>SuccessIsRunningDemo&#45;&gt;Done</title>
<path fill="none" stroke="black" d="M111.9,-143.7C117.61,-135.37 124.56,-125.23 130.84,-116.08"/>
<polygon fill="black" stroke="black" points="133.67,-118.15 136.44,-107.92 127.9,-114.19 133.67,-118.15"/>
</g>
<!-- Succeed Immediately -->
<g id="node3" class="node">
<title>Succeed Immediately</title>
<ellipse fill="gray" stroke="black" cx="53.04" cy="-18" rx="53.04" ry="18"/>
<text text-anchor="middle" x="53.04" y="-14.7" font-family="Times,serif" font-size="9.00">Succeed Immediately</text>
</g>
<!-- Success to Running&#45;&gt;Succeed Immediately -->
<g id="edge2" class="edge">
<title>Success to Running&#45;&gt;Succeed Immediately</title>
<path fill="none" stroke="black" d="M53.04,-71.7C53.04,-64.41 53.04,-55.73 53.04,-47.54"/>
<polygon fill="black" stroke="black" points="56.54,-47.62 53.04,-37.62 49.54,-47.62 56.54,-47.62"/>
</g>
</g>
</svg>
