<?xml version="1.0" encoding="UTF-8" standalone="no"?>
<!DOCTYPE svg PUBLIC "-//W3C//DTD SVG 1.1//EN"
 "http://www.w3.org/Graphics/SVG/1.1/DTD/svg11.dtd">
<!-- Generated by graphviz version 12.2.1 (20241206.2353)
 -->
<!-- Title: pastafarianism Pages: 1 -->
<svg width="198pt" height="188pt"
 viewBox="0.00 0.00 197.59 188.00" xmlns="http://www.w3.org/2000/svg" xmlns:xlink="http://www.w3.org/1999/xlink">
<g id="graph0" class="graph" transform="scale(1 1) rotate(0) translate(4 184)">
<title>pastafarianism</title>
<polygon fill="white" stroke="none" points="-4,4 -4,-184 193.59,-184 193.59,4 -4,4"/>
<!-- TimeoutDemo -->
<g id="node1" class="node">
<title>TimeoutDemo</title>
<polygon fill="orange" stroke="black" points="139.1,-180 60.85,-180 60.85,-144 139.1,-144 139.1,-180"/>
<text text-anchor="middle" x="99.98" y="-158.7" font-family="Times,serif" font-size="9.00">Ⓜ TimeoutDemo</text>
</g>
<!-- Timeout After 3s -->
<g id="node2" class="node">
<title>Timeout After 3s</title>
<ellipse fill="ghostwhite" stroke="black" cx="49.98" cy="-90" rx="44.3" ry="18"/>
<text text-anchor="middle" x="49.98" y="-86.7" font-family="Times,serif" font-size="9.00">Timeout After 3s</text>
</g>
<!-- TimeoutDemo&#45;&gt;Timeout After 3s -->
<g id="edge1" class="edge">
<title>TimeoutDemo&#45;&gt;Timeout After 3s</title>
<path fill="none" stroke="black" d="M87.62,-143.7C81.84,-135.61 74.84,-125.81 68.46,-116.87"/>
<polygon fill="black" stroke="black" points="71.39,-114.96 62.73,-108.85 65.7,-119.03 71.39,-114.96"/>
</g>
<!-- After Timeout -->
<g id="node4" class="node">
<title>After Timeout</title>
<ellipse fill="gray" stroke="black" cx="150.98" cy="-90" rx="38.61" ry="18"/>
<text text-anchor="middle" x="150.98" y="-86.7" font-family="Times,serif" font-size="9.00">After Timeout</text>
</g>
<!-- TimeoutDemo&#45;&gt;After Timeout -->
<g id="edge3" class="edge">
<title>TimeoutDemo&#45;&gt;After Timeout</title>
<path fill="none" stroke="black" d="M112.59,-143.7C118.63,-135.4 125.98,-125.31 132.63,-116.19"/>
<polygon fill="black" stroke="black" points="135.27,-118.51 138.33,-108.37 129.61,-114.39 135.27,-118.51"/>
</g>
<!-- Long Task (5 ticks) -->
<g id="node3" class="node">
<title>Long Task (5 ticks)</title>
<ellipse fill="gray" stroke="black" cx="49.98" cy="-18" rx="49.98" ry="18"/>
<text text-anchor="middle" x="49.98" y="-14.7" font-family="Times,serif" font-size="9.00">Long Task (5 ticks)</text>
</g>
<!-- Timeout After 3s&#45;&gt;Long Task (5 ticks) -->
<g id="edge2" class="edge">
<title>Timeout After 3s&#45;&gt;Long Task (5 ticks)</title>
<path fill="none" stroke="black" d="M49.98,-71.7C49.98,-64.41 49.98,-55.73 49.98,-47.54"/>
<polygon fill="black" stroke="black" points="53.48,-47.62 49.98,-37.62 46.48,-47.62 53.48,-47.62"/>
</g>
</g>
</svg>
